<?xml version="1.0" encoding="UTF-8" standalone="no"?>
<svg
   id="Calque_1"
   viewBox="0 0 1133.86 240.42"
   version="1.1"
   sodipodi:docname="full-logo.svg"
   inkscape:export-filename="../src/assets/full-logo.png"
   inkscape:export-xdpi="96"
   inkscape:export-ydpi="96"
   inkscape:version="1.2.1 (9c6d41e, 2022-07-14)"
   xmlns:inkscape="http://www.inkscape.org/namespaces/inkscape"
   xmlns:sodipodi="http://sodipodi.sourceforge.net/DTD/sodipodi-0.dtd"
   xmlns="http://www.w3.org/2000/svg"
   xmlns:svg="http://www.w3.org/2000/svg">
  <sodipodi:namedview
     id="namedview55"
     pagecolor="#ffffff"
     bordercolor="#000000"
     borderopacity="0.25"
     inkscape:showpageshadow="2"
     inkscape:pageopacity="0.0"
     inkscape:pagecheckerboard="0"
     inkscape:deskcolor="#d1d1d1"
     showgrid="false"
     inkscape:zoom="1.5750939"
     inkscape:cx="572.98173"
     inkscape:cy="54.282479"
     inkscape:window-width="2514"
     inkscape:window-height="1387"
     inkscape:window-x="0"
     inkscape:window-y="25"
     inkscape:window-maximized="0"
     inkscape:current-layer="g40" />
  <defs
     id="defs10">
    <style
       id="style2">.cls-1,.cls-2,.cls-3{stroke-width:0px;}.cls-1,.cls-4{fill:#f7f7f7;}.cls-2{fill:#1d1d1f;}.cls-5{clip-path:url(#clippath-1);}.cls-6{clip-path:url(#clippath);}.cls-3{fill:#fed00e;}</style>
    <clipPath
       id="clippath">
      <path
         class="cls-1"
         d="M517.32,0c15.66,0,28.35,12.69,28.35,28.35s-12.69,28.35-28.35,28.35-28.35-12.69-28.35-28.35,12.69-28.35,28.35-28.35ZM602.36,28.35c0,15.66,12.69,28.35,28.35,28.35s28.35-12.69,28.35-28.35-12.69-28.35-28.35-28.35-28.35,12.69-28.35,28.35ZM630.71,70.87c-15.64-.01-28.33,12.66-28.34,28.3v56.73c0,15.66-12.69,28.35-28.35,28.35s-28.35-12.69-28.35-28.35h0v-56.68c0-3-.47-5.98-1.41-8.83-4.93-14.86-20.97-22.92-35.83-17.99-11.57,3.83-19.39,14.63-19.43,26.82v56.68c0,46.97,38.07,85.04,85.04,85.04s85.04-38.07,85.04-85.04v-56.68c0-15.66-12.69-28.35-28.35-28.35,0,0-.01,0-.02,0Z"
         id="path4" />
    </clipPath>
    <clipPath
       id="clippath-1">
      <path
         class="cls-1"
         d="M517.32-255.12c15.66,0,28.35,12.69,28.35,28.35s-12.69,28.35-28.35,28.35-28.35-12.69-28.35-28.35,12.69-28.35,28.35-28.35ZM602.36-226.77c0,15.66,12.69,28.35,28.35,28.35s28.35-12.69,28.35-28.35-12.69-28.35-28.35-28.35-28.35,12.69-28.35,28.35ZM630.71-184.25c-15.64-.01-28.33,12.66-28.34,28.3v56.73c0,15.66-12.69,28.35-28.35,28.35s-28.35-12.69-28.35-28.35h0v-56.68c0-3-.47-5.98-1.41-8.83-4.93-14.86-20.97-22.92-35.83-17.99-11.57,3.83-19.39,14.63-19.43,26.82v56.68c0,46.97,38.07,85.04,85.04,85.04s85.04-38.07,85.04-85.04v-56.68c0-15.66-12.69-28.35-28.35-28.35,0,0-.01,0-.02,0Z"
         id="path7" />
    </clipPath>
  </defs>
  <g
     id="Layer_2">
    <g
       id="Layer_1-2">
      <circle
         class="cls-1"
         cx="325.98"
         cy="28.35"
         r="28.35"
         id="circle12"
         style="stroke-width:0;stroke-dasharray:none" />
      <circle
         class="cls-1"
         cx="439.37"
         cy="28.35"
         r="28.35"
         id="circle14"
         style="stroke-width:0;stroke-dasharray:none" />
      <path
         class="cls-1"
         d="M439.37,70.87c-15.64-.03-28.34,12.63-28.37,28.27,0,.03,0,.05,0,.08v56.68c0,15.66-12.69,28.35-28.35,28.35s-28.35-12.69-28.35-28.35h0v-56.68c0-3-.47-5.98-1.41-8.83-4.88-14.88-20.89-22.99-35.77-18.11-11.65,3.82-19.52,14.69-19.52,26.94v56.68c0,46.97,38.07,85.04,85.04,85.04s85.04-38.07,85.04-85.04v-56.68c0-15.64-12.67-28.33-28.31-28.35Z"
         id="path16"
         style="stroke-width:0;stroke-dasharray:none" />
      <path
         class="cls-1"
         d="M269.29,184.25h-56.69V28.35c.29-15.65-12.16-28.58-27.81-28.88s-28.58,12.16-28.88,27.81c0,.35,0,.71,0,1.06v184.25c0,15.65,12.69,28.34,28.34,28.34h85c15.65.29,28.58-12.16,28.88-27.81.29-15.65-12.16-28.58-27.81-28.88-.35,0-.71,0-1.06,0h.04Z"
         id="path18"
         style="stroke-width:0;stroke-dasharray:none" />
      <path
         class="cls-1"
         d="M793.7,56.69c15.65.29,28.58-12.16,28.88-27.81C822.87,13.22,810.42.29,794.77,0c-.35,0-.71,0-1.07,0h-85c-15.66,0-28.35,12.69-28.35,28.35v184.25c0,15.66,12.69,28.35,28.35,28.35s28.35-12.69,28.35-28.35h0v-70.87h56.65c15.65.29,28.58-12.16,28.88-27.81.29-15.65-12.16-28.58-27.81-28.88-.35,0-.71,0-1.06,0h-56.7v-28.35h56.7Z"
         id="path20"
         style="stroke-width:0;stroke-dasharray:none" />
      <path
         class="cls-1"
         d="M949.61,85h-56.7v-28.31h56.7c15.65-.29,28.11-13.22,27.81-28.88-.29-15.24-12.57-27.53-27.81-27.81h-85c-15.66,0-28.35,12.69-28.35,28.35v184.25c.29,15.65,13.22,28.11,28.88,27.81,15.24-.29,27.53-12.57,27.81-27.81v-70.87h56.7c15.65-.29,28.11-13.22,27.81-28.88-.29-15.24-12.57-27.53-27.81-27.81l-.04-.04Z"
         id="path22"
         style="stroke-width:0;stroke-dasharray:none" />
      <path
         class="cls-1"
         d="M1105.51,85.04h-56.7v-28.35h56.3c.13,0,.26.01.4.01,15.66,0,28.35-12.69,28.35-28.35s-12.69-28.35-28.35-28.35h-85.04c-15.66,0-28.35,12.69-28.35,28.35h0v184.25h0c0,15.66,12.69,28.35,28.35,28.35s28.35-12.69,28.35-28.35c0-.13,0-.26-.01-.4v-70.47h56.3c.13,0,.26.01.4.01,15.66,0,28.35-12.69,28.35-28.35s-12.69-28.35-28.35-28.35Z"
         id="path24"
         style="stroke-width:0;stroke-dasharray:none" />
      <path
         class="cls-1"
         d="M113.39,85h-56.7v-28.31h56.7c15.65-.29,28.11-13.22,27.81-28.88-.29-15.24-12.57-27.53-27.81-27.81H28.39C12.73-.02.02,12.65,0,28.31c0,.01,0,.03,0,.04v184.25c.29,15.65,13.22,28.11,28.88,27.81,15.24-.29,27.53-12.57,27.81-27.81v-70.87h56.7c15.65-.29,28.11-13.22,27.81-28.88-.29-15.24-12.57-27.53-27.81-27.81v-.04Z"
         id="path26"
         style="stroke-width:0;stroke-dasharray:none" />
      <path
         class="cls-4"
         d="M517.32,0c15.66,0,28.35,12.69,28.35,28.35s-12.69,28.35-28.35,28.35-28.35-12.69-28.35-28.35,12.69-28.35,28.35-28.35ZM602.36,28.35c0,15.66,12.69,28.35,28.35,28.35s28.35-12.69,28.35-28.35-12.69-28.35-28.35-28.35-28.35,12.69-28.35,28.35ZM630.71,70.87c-15.64-.01-28.33,12.66-28.34,28.3v56.73c0,15.66-12.69,28.35-28.35,28.35s-28.35-12.69-28.35-28.35h0v-56.68c0-3-.47-5.98-1.41-8.83-4.93-14.86-20.97-22.92-35.83-17.99-11.57,3.83-19.39,14.63-19.43,26.82v56.68c0,46.97,38.07,85.04,85.04,85.04s85.04-38.07,85.04-85.04v-56.68c0-15.66-12.69-28.35-28.35-28.35,0,0-.01,0-.02,0Z"
         id="path28"
         style="stroke-width:10;stroke-dasharray:none" />
      <g
         class="cls-6"
         clip-path="url(#clippath)"
         id="g40"
         style="display:inline;stroke-width:10;stroke-dasharray:none">
        <rect
           class="cls-3"
           x="456.19"
           y="-78.529999"
           width="256.95001"
           height="328.35999"
           transform="rotate(29.88,584.67316,85.650506)"
           id="rect30"
           style="display:inline;stroke-width:10;stroke-dasharray:none" />
        <polygon
           class="cls-2"
           points="591.33,-99.88 561.44,-117.05 395.08,166.06 424.97,183.24 "
           id="polygon32"
           style="stroke-width:10;stroke-dasharray:none" />
        <polygon
           class="cls-2"
           points="650.82,-65.7 620.93,-82.87 454.57,200.25 484.46,217.42 "
           id="polygon34"
           style="stroke-width:10;stroke-dasharray:none" />
        <polygon
           class="cls-2"
           points="710.31,-31.51 680.42,-48.69 514.06,234.43 543.95,251.6 "
           id="polygon36"
           style="stroke-width:10;stroke-dasharray:none" />
        <polygon
           class="cls-2"
           points="769.81,2.67 739.92,-14.5 573.56,268.61 603.45,285.78 "
           id="polygon38"
           style="stroke-width:10;stroke-dasharray:none" />
        <path
           class="cls-4"
           d="m 517.32,0 c 15.66,0 28.35,12.69 28.35,28.35 0,15.66 -12.69,28.35 -28.35,28.35 -15.66,0 -28.35,-12.69 -28.35,-28.35 C 488.97,12.69 501.66,0 517.32,0 Z m 85.04,28.35 c 0,15.66 12.69,28.35 28.35,28.35 15.66,0 28.35,-12.69 28.35,-28.35 C 659.06,12.69 646.37,0 630.71,0 615.05,0 602.36,12.69 602.36,28.35 Z m 28.35,42.52 c -15.64,-0.01 -28.33,12.66 -28.34,28.3 v 56.73 c 0,15.66 -12.69,28.35 -28.35,28.35 -15.66,0 -28.35,-12.69 -28.35,-28.35 v 0 -56.68 c 0,-3 -0.47,-5.98 -1.41,-8.83 C 539.33,75.53 523.29,67.47 508.43,72.4 496.86,76.23 489.04,87.03 489,99.22 v 56.68 c 0,46.97 38.07,85.04 85.04,85.04 46.97,0 85.04,-38.07 85.04,-85.04 V 99.22 c 0,-15.66 -12.69,-28.35 -28.35,-28.35 0,0 -0.01,0 -0.02,0 z"
           id="path3464"
           style="display:inline;fill:none;stroke:#f7f7f7;stroke-width:10;stroke-dasharray:none;stroke-opacity:1"
           inkscape:label="outline" />
      </g>
    </g>
  </g>
  <g
     id="Layer_2-2">
    <g
       id="Layer_1-2-2">
      <path
         class="cls-4"
         d="M517.32-255.12c15.66,0,28.35,12.69,28.35,28.35s-12.69,28.35-28.35,28.35-28.35-12.69-28.35-28.35,12.69-28.35,28.35-28.35ZM602.36-226.77c0,15.66,12.69,28.35,28.35,28.35s28.35-12.69,28.35-28.35-12.69-28.35-28.35-28.35-28.35,12.69-28.35,28.35ZM630.71-184.25c-15.64-.01-28.33,12.66-28.34,28.3v56.73c0,15.66-12.69,28.35-28.35,28.35s-28.35-12.69-28.35-28.35h0v-56.68c0-3-.47-5.98-1.41-8.83-4.93-14.86-20.97-22.92-35.83-17.99-11.57,3.83-19.39,14.63-19.43,26.82v56.68c0,46.97,38.07,85.04,85.04,85.04s85.04-38.07,85.04-85.04v-56.68c0-15.66-12.69-28.35-28.35-28.35,0,0-.01,0-.02,0Z"
         id="path44" />
      <g
         class="cls-5"
         clip-path="url(#clippath-1)"
         id="g50">
        <rect
           class="cls-3"
           x="456.19"
           y="-333.65"
           width="256.95"
           height="328.36"
           transform="translate(-6.71 -313.8) rotate(29.88)"
           id="rect46" />
        <polygon
           class="cls-2"
           points="573.56 13.49 603.45 30.67 769.81 -252.45 739.92 -269.62 573.56 13.49"
           id="polygon48" />
      </g>
    </g>
  </g>
</svg>
