<?xml version="1.0" encoding="UTF-8"?><svg id="Calque_1" xmlns="http://www.w3.org/2000/svg" xmlns:xlink="http://www.w3.org/1999/xlink" viewBox="0 0 1133.86 240.42"><defs><style>.cls-1,.cls-2,.cls-3{stroke-width:0px;}.cls-1,.cls-4{fill:#f7f7f7;}.cls-2{fill:#1d1d1f;}.cls-5{clip-path:url(#clippath-1);}.cls-6{clip-path:url(#clippath);}.cls-3{fill:#fed00e;}</style><clipPath id="clippath"><path class="cls-1" d="M517.32,0c15.66,0,28.35,12.69,28.35,28.35s-12.69,28.35-28.35,28.35-28.35-12.69-28.35-28.35,12.69-28.35,28.35-28.35ZM602.36,28.35c0,15.66,12.69,28.35,28.35,28.35s28.35-12.69,28.35-28.35-12.69-28.35-28.35-28.35-28.35,12.69-28.35,28.35ZM630.71,70.87c-15.64-.01-28.33,12.66-28.34,28.3v56.73c0,15.66-12.69,28.35-28.35,28.35s-28.35-12.69-28.35-28.35h0v-56.68c0-3-.47-5.98-1.41-8.83-4.93-14.86-20.97-22.92-35.83-17.99-11.57,3.83-19.39,14.63-19.43,26.82v56.68c0,46.97,38.07,85.04,85.04,85.04s85.04-38.07,85.04-85.04v-56.68c0-15.66-12.69-28.35-28.35-28.35,0,0-.01,0-.02,0Z"/></clipPath><clipPath id="clippath-1"><path class="cls-1" d="M517.32-255.12c15.66,0,28.35,12.69,28.35,28.35s-12.69,28.35-28.35,28.35-28.35-12.69-28.35-28.35,12.69-28.35,28.35-28.35ZM602.36-226.77c0,15.66,12.69,28.35,28.35,28.35s28.35-12.69,28.35-28.35-12.69-28.35-28.35-28.35-28.35,12.69-28.35,28.35ZM630.71-184.25c-15.64-.01-28.33,12.66-28.34,28.3v56.73c0,15.66-12.69,28.35-28.35,28.35s-28.35-12.69-28.35-28.35h0v-56.68c0-3-.47-5.98-1.41-8.83-4.93-14.86-20.97-22.92-35.83-17.99-11.57,3.83-19.39,14.63-19.43,26.82v56.68c0,46.97,38.07,85.04,85.04,85.04s85.04-38.07,85.04-85.04v-56.68c0-15.66-12.69-28.35-28.35-28.35,0,0-.01,0-.02,0Z"/></clipPath></defs><g id="Layer_2"><g id="Layer_1-2"><circle class="cls-1" cx="325.98" cy="28.35" r="28.35"/><circle class="cls-1" cx="439.37" cy="28.35" r="28.35"/><path class="cls-1" d="M439.37,70.87c-15.64-.03-28.34,12.63-28.37,28.27,0,.03,0,.05,0,.08v56.68c0,15.66-12.69,28.35-28.35,28.35s-28.35-12.69-28.35-28.35h0v-56.68c0-3-.47-5.98-1.41-8.83-4.88-14.88-20.89-22.99-35.77-18.11-11.65,3.82-19.52,14.69-19.52,26.94v56.68c0,46.97,38.07,85.04,85.04,85.04s85.04-38.07,85.04-85.04v-56.68c0-15.64-12.67-28.33-28.31-28.35Z"/><path class="cls-1" d="M269.29,184.25h-56.69V28.35c.29-15.65-12.16-28.58-27.81-28.88s-28.58,12.16-28.88,27.81c0,.35,0,.71,0,1.06v184.25c0,15.65,12.69,28.34,28.34,28.34h85c15.65.29,28.58-12.16,28.88-27.81.29-15.65-12.16-28.58-27.81-28.88-.35,0-.71,0-1.06,0h.04Z"/><path class="cls-1" d="M793.7,56.69c15.65.29,28.58-12.16,28.88-27.81C822.87,13.22,810.42.29,794.77,0c-.35,0-.71,0-1.07,0h-85c-15.66,0-28.35,12.69-28.35,28.35v184.25c0,15.66,12.69,28.35,28.35,28.35s28.35-12.69,28.35-28.35h0v-70.87h56.65c15.65.29,28.58-12.16,28.88-27.81.29-15.65-12.16-28.58-27.81-28.88-.35,0-.71,0-1.06,0h-56.7v-28.35h56.7Z"/><path class="cls-1" d="M949.61,85h-56.7v-28.31h56.7c15.65-.29,28.11-13.22,27.81-28.88-.29-15.24-12.57-27.53-27.81-27.81h-85c-15.66,0-28.35,12.69-28.35,28.35v184.25c.29,15.65,13.22,28.11,28.88,27.81,15.24-.29,27.53-12.57,27.81-27.81v-70.87h56.7c15.65-.29,28.11-13.22,27.81-28.88-.29-15.24-12.57-27.53-27.81-27.81l-.04-.04Z"/><path class="cls-1" d="M1105.51,85.04h-56.7v-28.35h56.3c.13,0,.26.01.4.01,15.66,0,28.35-12.69,28.35-28.35s-12.69-28.35-28.35-28.35h-85.04c-15.66,0-28.35,12.69-28.35,28.35h0v184.25h0c0,15.66,12.69,28.35,28.35,28.35s28.35-12.69,28.35-28.35c0-.13,0-.26-.01-.4v-70.47h56.3c.13,0,.26.01.4.01,15.66,0,28.35-12.69,28.35-28.35s-12.69-28.35-28.35-28.35Z"/><path class="cls-1" d="M113.39,85h-56.7v-28.31h56.7c15.65-.29,28.11-13.22,27.81-28.88-.29-15.24-12.57-27.53-27.81-27.81H28.39C12.73-.02.02,12.65,0,28.31c0,.01,0,.03,0,.04v184.25c.29,15.65,13.22,28.11,28.88,27.81,15.24-.29,27.53-12.57,27.81-27.81v-70.87h56.7c15.65-.29,28.11-13.22,27.81-28.88-.29-15.24-12.57-27.53-27.81-27.81v-.04Z"/><path class="cls-4" d="M517.32,0c15.66,0,28.35,12.69,28.35,28.35s-12.69,28.35-28.35,28.35-28.35-12.69-28.35-28.35,12.69-28.35,28.35-28.35ZM602.36,28.35c0,15.66,12.69,28.35,28.35,28.35s28.35-12.69,28.35-28.35-12.69-28.35-28.35-28.35-28.35,12.69-28.35,28.35ZM630.71,70.87c-15.64-.01-28.33,12.66-28.34,28.3v56.73c0,15.66-12.69,28.35-28.35,28.35s-28.35-12.69-28.35-28.35h0v-56.68c0-3-.47-5.98-1.41-8.83-4.93-14.86-20.97-22.92-35.83-17.99-11.57,3.83-19.39,14.63-19.43,26.82v56.68c0,46.97,38.07,85.04,85.04,85.04s85.04-38.07,85.04-85.04v-56.68c0-15.66-12.69-28.35-28.35-28.35,0,0-.01,0-.02,0Z"/><g class="cls-6"><rect class="cls-3" x="456.19" y="-78.53" width="256.95" height="328.36" transform="translate(120.39 -279.89) rotate(29.88)"/><polygon class="cls-2" points="395.08 166.06 424.97 183.24 591.33 -99.88 561.44 -117.05 395.08 166.06"/><polygon class="cls-2" points="454.57 200.25 484.46 217.42 650.82 -65.7 620.93 -82.87 454.57 200.25"/><polygon class="cls-2" points="514.06 234.43 543.95 251.6 710.31 -31.51 680.42 -48.69 514.06 234.43"/><polygon class="cls-2" points="573.56 268.61 603.45 285.78 769.81 2.67 739.92 -14.5 573.56 268.61"/></g></g></g><g id="Layer_2-2"><g id="Layer_1-2-2"><path class="cls-4" d="M517.32-255.12c15.66,0,28.35,12.69,28.35,28.35s-12.69,28.35-28.35,28.35-28.35-12.69-28.35-28.35,12.69-28.35,28.35-28.35ZM602.36-226.77c0,15.66,12.69,28.35,28.35,28.35s28.35-12.69,28.35-28.35-12.69-28.35-28.35-28.35-28.35,12.69-28.35,28.35ZM630.71-184.25c-15.64-.01-28.33,12.66-28.34,28.3v56.73c0,15.66-12.69,28.35-28.35,28.35s-28.35-12.69-28.35-28.35h0v-56.68c0-3-.47-5.98-1.41-8.83-4.93-14.86-20.97-22.92-35.83-17.99-11.57,3.83-19.39,14.63-19.43,26.82v56.68c0,46.97,38.07,85.04,85.04,85.04s85.04-38.07,85.04-85.04v-56.68c0-15.66-12.69-28.35-28.35-28.35,0,0-.01,0-.02,0Z"/><g class="cls-5"><rect class="cls-3" x="456.19" y="-333.65" width="256.95" height="328.36" transform="translate(-6.71 -313.8) rotate(29.88)"/><polygon class="cls-2" points="573.56 13.49 603.45 30.67 769.81 -252.45 739.92 -269.62 573.56 13.49"/></g></g></g></svg>